<svg width="32" height="32" viewBox="0 0 32 32" fill="none" xmlns="http://www.w3.org/2000/svg">
<g id="fluent:people-24-regular">
<path id="Vector" d="M7.33464 10.6666C7.33464 9.78259 7.68582 8.93475 8.31095 8.30962C8.93607 7.6845 9.78391 7.33331 10.668 7.33331C11.552 7.33331 12.3999 7.6845 13.025 8.30962C13.6501 8.93475 14.0013 9.78259 14.0013 10.6666C14.0013 11.5507 13.6501 12.3985 13.025 13.0237C12.3999 13.6488 11.552 14 10.668 14C9.78391 14 8.93607 13.6488 8.31095 13.0237C7.68582 12.3985 7.33464 11.5507 7.33464 10.6666ZM10.668 5.33331C9.25348 5.33331 7.89693 5.89522 6.89673 6.89541C5.89654 7.8956 5.33464 9.25216 5.33464 10.6666C5.33464 12.0811 5.89654 13.4377 6.89673 14.4379C7.89693 15.4381 9.25348 16 10.668 16C12.0825 16 13.439 15.4381 14.4392 14.4379C15.4394 13.4377 16.0013 12.0811 16.0013 10.6666C16.0013 9.25216 15.4394 7.8956 14.4392 6.89541C13.439 5.89522 12.0825 5.33331 10.668 5.33331ZM20.668 12C20.668 11.4695 20.8787 10.9608 21.2538 10.5858C21.6288 10.2107 22.1375 9.99998 22.668 9.99998C23.1984 9.99998 23.7071 10.2107 24.0822 10.5858C24.4573 10.9608 24.668 11.4695 24.668 12C24.668 12.5304 24.4573 13.0391 24.0822 13.4142C23.7071 13.7893 23.1984 14 22.668 14C22.1375 14 21.6288 13.7893 21.2538 13.4142C20.8787 13.0391 20.668 12.5304 20.668 12ZM22.668 7.99998C21.6071 7.99998 20.5897 8.42141 19.8395 9.17155C19.0894 9.9217 18.668 10.9391 18.668 12C18.668 13.0608 19.0894 14.0783 19.8395 14.8284C20.5897 15.5786 21.6071 16 22.668 16C23.7288 16 24.7463 15.5786 25.4964 14.8284C26.2465 14.0783 26.668 13.0608 26.668 12C26.668 10.9391 26.2465 9.9217 25.4964 9.17155C24.7463 8.42141 23.7288 7.99998 22.668 7.99998ZM18.9986 25.384C19.936 25.764 21.1373 26 22.6693 26C25.712 26 27.4506 25.0706 28.3986 23.9226C28.8586 23.3653 29.092 22.8026 29.212 22.372C29.2804 22.1224 29.3219 21.8663 29.336 21.608V21.572C29.336 21.1904 29.2608 20.8126 29.1148 20.4602C28.9688 20.1077 28.7548 19.7874 28.485 19.5176C28.2152 19.2478 27.8949 19.0338 27.5425 18.8878C27.19 18.7418 26.8122 18.6666 26.4306 18.6666H18.908C18.8706 18.6666 18.8346 18.6666 18.7986 18.6693C19.324 19.216 19.7053 19.9026 19.8866 20.6666H26.4306C26.9266 20.6666 27.3293 21.0653 27.336 21.5586C27.3265 21.6542 27.3086 21.7488 27.2826 21.8413C27.2003 22.1378 27.0547 22.413 26.856 22.648C26.3893 23.216 25.2933 24 22.6693 24C21.3626 24 20.4346 23.8053 19.776 23.54C19.632 24.0733 19.3946 24.7173 18.9986 25.384ZM5.66797 18.6666C4.87232 18.6666 4.10926 18.9827 3.54665 19.5453C2.98404 20.1079 2.66797 20.871 2.66797 21.6666V22.0373C2.66954 22.13 2.67577 22.2226 2.68664 22.3146C2.79674 23.3068 3.15335 24.2556 3.72397 25.0746C4.81464 26.632 6.8973 28 10.668 28C14.4386 28 16.5213 26.6333 17.612 25.0733C18.1827 24.2543 18.5394 23.3055 18.6493 22.3133C18.6587 22.2216 18.6649 22.1295 18.668 22.0373V21.6666C18.668 20.871 18.3519 20.1079 17.7893 19.5453C17.2267 18.9827 16.4636 18.6666 15.668 18.6666H5.66797ZM4.66797 22.0093V21.6666C4.66797 21.4014 4.77333 21.1471 4.96086 20.9595C5.1484 20.772 5.40275 20.6666 5.66797 20.6666H15.668C15.9332 20.6666 16.1875 20.772 16.3751 20.9595C16.5626 21.1471 16.668 21.4014 16.668 21.6666V22.0093L16.6586 22.116C16.5827 22.7667 16.3472 23.3887 15.9733 23.9266C15.316 24.8666 13.8973 26 10.668 26C7.43864 26 6.01997 24.8666 5.3613 23.9266C4.98783 23.3885 4.75289 22.7666 4.6773 22.116C4.67326 22.0805 4.67014 22.0449 4.66797 22.0093Z" fill="black"/>
</g>
</svg>
