<svg width="570" height="774" viewBox="0 0 570 774" fill="none" xmlns="http://www.w3.org/2000/svg">
<path d="M569.266 691.205L568.015 787.564L-98.5742 1173V1077.48L569.266 691.205Z" fill="#23322D"/>
<path d="M-93.5763 309.521L569.258 691.204L-98.5823 1077.47L-761 694.541L-93.5763 309.521Z" fill="#F1F9F6"/>
<path d="M471.653 622.795L470.819 705.389L-98.1602 1034.51V952.753L471.653 622.795Z" fill="#D5EFE7"/>
<path d="M-93.9874 297.002L471.655 622.788L-98.1588 952.745L-663.383 625.708L-93.9874 297.002Z" fill="#D5EFE7"/>
<path d="M318.563 623.616L-94.4049 385.429L-510.293 625.702L-97.7417 864.306L286.861 641.97L318.563 623.616Z" fill="#23322D"/>
<path d="M471.643 622.794L470.809 705.388L-98.1699 1034.51V952.752L471.643 622.794Z" fill="#23322D"/>
<path d="M-94.4029 385.435L318.565 623.622L-97.7397 864.312L-510.291 625.708L-94.4029 385.435Z" fill="#97D6C3"/>
<path d="M-94.4029 422.56L286.863 641.976L318.565 623.622L-94.4029 385.435L-510.291 625.708L-478.171 644.062L-94.4029 422.56Z" fill="#23322D"/>
<path d="M286.421 467.629L285.586 488.486L-97.3477 709.987V689.547L286.421 467.629Z" fill="#23322D"/>
<path d="M-94.4241 248.211L286.425 467.627L-97.3439 689.545L-477.775 469.712L-94.4241 248.211Z" fill="#D5EFE7"/>
<path d="M286.421 219.418L285.586 240.275L-97.3477 461.776V441.336L286.421 219.418Z" fill="#23322D"/>
<path d="M-94.4241 0L286.425 219.416L-97.3439 441.334L-477.775 221.501L-94.4241 0Z" fill="#D5EFE7"/>
<path d="M-159.891 595.26L-86.8912 637.391L207.192 467.615L132.941 424.65L-159.891 595.26Z" fill="#97D6C3"/>
<path d="M132.941 435.078L198.433 472.621L207.192 467.615L132.941 424.65L-159.891 595.26L-150.714 600.266L132.941 435.078Z" fill="#ACDECF"/>
<mask id="mask0_2125_62229" style="mask-type:luminance" maskUnits="userSpaceOnUse" x="-77" y="309" width="259" height="323">
<path d="M181.332 482.625L-76.877 631.544V420.888L152.132 309.929L181.332 482.625Z" fill="white"/>
</mask>
<g mask="url(#mask0_2125_62229)">
<path d="M94.5664 549.411L113.338 560.257L130.023 569.851L110.835 559.005L94.5664 549.411Z" fill="#EEDABE"/>
<path d="M126.692 483.07L150.052 469.722L130.864 458.876L107.504 472.225L126.692 483.07Z" fill="#EEDABE"/>
<path d="M129.615 425.094L110.426 414.248L90.4033 402.986L74.1348 431.351C73.3005 431.351 72.4662 430.934 72.0491 430.934C70.3805 430.517 68.7121 430.517 67.0436 430.517C65.375 430.517 63.7063 430.517 61.6206 430.517C59.5349 430.517 57.4491 430.934 55.7805 430.934C53.2777 431.351 51.1922 431.768 48.6893 432.603C46.6036 433.02 44.1005 433.854 41.5977 434.688L60.7865 445.534C63.2893 444.7 65.3748 443.865 67.8777 443.448C70.3805 442.614 72.466 442.197 74.9688 441.78C77.0545 441.363 79.1403 441.363 80.8089 441.363C82.4775 441.363 84.5634 441.363 86.2319 441.363C87.9005 441.363 89.5688 441.78 91.2374 441.78C92.0717 441.78 92.9059 442.197 93.3231 442.197L109.592 413.831L129.615 425.094Z" fill="#EEDABE"/>
<path d="M32.8342 461.805V435.108L60.7829 418.84L41.594 407.994L13.6459 424.262V450.959C9.05735 454.297 4.88615 458.468 0.297615 462.639C-2.62236 465.559 -5.54275 468.896 -8.46272 472.234C-10.5484 474.736 -13.0512 477.239 -15.1369 480.159C-16.3883 481.828 -17.6398 483.496 -18.8912 485.582L-35.5768 475.988L-55.1822 510.193L-38.9136 519.788C-39.3308 520.622 -39.7482 521.039 -39.7482 521.873C-40.9996 524.376 -41.8337 526.879 -42.668 528.964C-43.5023 531.467 -44.7535 533.97 -45.5878 536.473C-46.422 539.393 -47.2567 541.896 -48.091 544.816C-48.9253 547.736 -49.7596 551.073 -50.1767 553.993C-51.011 557.33 -51.4277 561.084 -51.8448 564.421L-75.2051 577.77V609.89L-56.0162 620.735V588.616L-32.6565 575.267C-32.2394 571.93 -31.405 568.176 -30.9879 564.839C-30.1536 561.919 -29.7364 558.581 -28.9022 555.661C-28.0679 552.741 -27.2337 550.239 -26.3994 547.319C-25.5651 544.816 -24.7311 542.313 -23.4797 539.81C-22.6454 537.307 -21.3936 534.804 -20.5594 532.719C-20.1422 531.884 -19.7253 531.05 -19.7253 530.633L-35.9938 521.039L-16.388 487.25L0.297615 496.845C1.54904 495.176 2.80005 493.508 4.05147 491.422C6.13717 488.502 8.22327 485.999 10.7261 483.496C13.6461 480.159 16.566 477.239 19.4859 473.902C23.6573 469.314 28.2457 465.142 32.8342 461.805Z" fill="#EEDABE"/>
<path d="M60.7786 418.842V445.539C72.8756 440.95 83.7209 440.116 93.3152 442.202L109.584 413.836L129.607 425.099L113.338 453.465C120.012 460.556 124.601 470.567 127.103 483.082L150.464 469.733V501.853L127.103 515.201C125.018 530.218 120.429 545.653 113.755 560.252L130.441 569.847L110.835 604.052L94.1497 594.458C84.5555 607.806 73.7097 619.486 61.6126 628.663V655.36L33.6645 671.629V644.932C21.5674 649.521 10.7216 650.355 1.12738 648.269L-15.1412 676.634L-35.1636 665.372L-18.8955 637.006C-25.5698 629.915 -30.1581 619.904 -32.2438 607.389L-55.6035 620.738V588.618L-32.2438 575.27C-30.1581 560.253 -25.5698 544.818 -18.8955 530.219L-35.5811 520.624L-15.9752 486.419L0.710346 496.013C10.3046 482.665 21.1499 470.985 33.2469 461.808V435.111L60.7786 418.842Z" fill="#D05F0D"/>
</g>
<path d="M45.3385 250.705L-44.7636 303.265L-61.4492 293.671L28.6529 241.111L45.3385 250.705Z" fill="#045137"/>
<path d="M-1.39304 239.427C-3.0616 243.182 -6.81586 246.519 -11.8215 249.856C-16.8272 252.776 -22.6671 254.861 -28.9242 255.696C-35.1813 256.947 -42.2727 256.947 -49.3641 255.696C-56.8726 254.444 -63.9642 251.524 -71.4727 247.353L-88.5753 237.342L-123.615 257.781L-140.301 248.187L-50.1987 195.628L-16.8275 214.816C-9.73613 218.987 -4.73036 223.159 -2.64465 227.33C0.275314 231.502 0.692657 235.673 -1.39304 239.427ZM-43.107 243.599C-38.1013 243.599 -33.0956 242.347 -28.9242 239.844C-24.3356 237.342 -22.25 234.422 -22.25 231.502C-22.25 228.582 -25.1699 225.245 -31.0099 221.907L-46.8614 212.73L-75.2271 229.416L-59.3756 238.593C-53.5356 241.93 -48.1127 243.599 -43.107 243.599Z" fill="#045137"/>
</svg>
