<svg width="40" height="40" viewBox="0 0 40 40" fill="none" xmlns="http://www.w3.org/2000/svg">
<path fill-rule="evenodd" clip-rule="evenodd" d="M6.06826 26.0446C4.45979 26.0415 2.91807 25.393 1.78071 24.241C0.643347 23.0891 0.00303822 21.5276 0 19.8985L0 6.14606C0.00303822 4.51697 0.643347 2.95548 1.78071 1.80354C2.91807 0.651595 4.45979 0.00307717 6.06826 0L19.6466 0C21.2551 0.00307717 22.7968 0.651595 23.9342 1.80354C25.0716 2.95548 25.7119 4.51697 25.7149 6.14606V19.2471L22.09 21.3664H34.414C35.6595 21.3679 36.8536 21.8697 37.7343 22.7617C38.615 23.6537 39.1104 24.8631 39.1119 26.1245V34.8552C39.1104 36.1166 38.615 37.326 37.7343 38.218C36.8536 39.11 35.6595 39.6118 34.414 39.6133H25.7919C24.5464 39.6115 23.3525 39.1097 22.4719 38.2177C21.5912 37.3258 21.0957 36.1166 21.094 34.8552V28.1736L24.7313 26.0476H6.06826M21.0955 21.3659V4.67864H4.61942V21.3659H21.0955ZM34.414 26.0446H25.7149V34.8552C25.7164 34.8753 25.725 34.8943 25.7391 34.9086C25.7532 34.9229 25.7719 34.9316 25.7919 34.9331H34.414C34.4341 34.9322 34.453 34.9235 34.4669 34.9088C34.4816 34.8948 34.4902 34.8756 34.4909 34.8552V26.1225C34.4902 26.1023 34.4816 26.0832 34.4669 26.0694C34.4532 26.0544 34.4342 26.0455 34.414 26.0446Z" fill="#23322D"/>
</svg>
