<svg fill="none" height="104" viewBox="0 0 604 104" width="604" xmlns="http://www.w3.org/2000/svg" xmlns:xlink="http://www.w3.org/1999/xlink"><clipPath id="a"><path d="m0 0h604v104h-604z"/></clipPath><g clip-path="url(#a)" fill="#23322d"><path d="m191.795 102.313h-15.238v-14.9626l-.462-4.1238v-29.1646c0-5.7006-1.375-9.5708-4.114-11.6107-2.641-2.0398-6.953-3.0543-12.949-3.0543s-10.309 1.0696-12.95 3.2087c-2.541 2.1391-3.806 5.7006-3.806 10.6845v2.2934h-15.843v-1.5216c0-5.7006 1.375-10.7396 4.115-15.117 2.849-4.3775 6.755-7.7846 11.728-10.2324 5.083-2.5471 10.969-3.8151 17.68-3.8151 7.107 0 13.004 1.3231 17.669 3.9694 4.675 2.6463 8.174 6.3071 10.517 10.9932 2.432 4.576 3.653 10.0229 3.653 16.341v46.1229zm-43.424 1.522c-6.81 0-12.542-1.731-17.218-5.1937-4.566-3.5615-6.854-8.6005-6.854-15.117 0-4.2782.968-7.8397 2.893-10.6845 2.036-2.8558 4.929-5.1934 8.692-7.0238 3.762-1.8303 8.328-3.1094 13.708-3.8151l28.033-3.9694v11.6107l-25.602 3.8151c-4.367.6064-7.415 1.5216-9.142 2.7455s-2.586 3.2528-2.586 6.1086 1.013 5.0941 3.048 6.4173c2.134 1.3231 5.589 1.9847 10.364 1.9847 3.652 0 7.162-.5623 10.517-1.676 3.455-1.2239 6.293-3.2086 8.538-5.9542 2.233-2.8558 3.355-6.8253 3.355-11.9084l2.135 19.3953-2.443-.1544c-1.419 2.3376-3.399 4.5318-5.941 6.5717-2.442 2.0398-5.435 3.7156-8.988 5.0386-3.554 1.224-7.723 1.831-12.498 1.831z"/><path d="m278.104 102.313h-16.459v-44.1382c0-6.715-1.265-11.5555-3.806-14.5106-2.542-3.0543-7.317-4.5759-14.325-4.5759-4.466 0-8.13.6616-10.969 1.9847-2.838 1.224-4.972 3.2528-6.403 6.1086-1.419 2.7456-2.134 6.5165-2.134 11.302h-2.893l-1.376-17.8626h3.653c1.122-2.7456 2.794-5.2927 5.028-7.6302 2.233-2.3376 5.083-4.2782 8.537-5.7999 3.554-1.5326 7.767-2.2934 12.641-2.2934 6.601 0 11.992 1.268 16.151 3.8151 4.17 2.547 7.261 6.0534 9.297 10.5411 2.035 4.4767 3.047 9.626 3.047 15.4258v47.6445zm-54.096 0h-16.459v-75.8939h15.084v22.7583l1.375.7608z"/><path d="m327.535 104c-7.921 0-14.621-1.676-20.111-5.0389-5.49-3.363-9.704-7.9941-12.641-13.8932-2.839-5.9101-4.269-12.7794-4.269-20.6191s1.474-14.7091 4.423-20.6192c3.047-6.0093 7.36-10.6404 12.949-13.8931 5.589-3.363 12.344-5.039 20.265-5.039 6.7 0 12.597 1.268 17.68 3.8151 5.083 2.547 8.989 6.1085 11.728 10.6844 2.85 4.5759 4.269 9.9237 4.269 16.0323v1.3783h-16.305v-.9152c0-5.6014-1.529-9.6701-4.565-12.2172-2.949-2.6463-7.57-3.9694-13.863-3.9694-7.316 0-12.542 2.0839-15.688 6.2629-3.048 4.0687-4.566 10.1773-4.566 18.3257s1.529 14.4555 4.566 18.6344c3.146 4.0687 8.383 6.1086 15.688 6.1086 6.293 0 10.925-1.268 13.863-3.8151 3.047-2.6463 4.565-6.715 4.565-12.2171v-.9152h16.305v1.3783c0 5.9101-1.419 11.2027-4.269 15.8778-2.838 4.576-6.854 8.1926-12.036 10.8389-5.083 2.547-11.068 3.815-17.977 3.815z"/><path d="m444.903 102.313h-16.459v-44.1383c0-6.715-1.32-11.5555-3.961-14.5106-2.541-3.0543-7.261-4.5759-14.17-4.5759s-11.53 1.4775-14.775 4.4326c-3.147 2.8558-4.72 7.8948-4.72 15.117h-2.894l-.154-19.5496h3.653c1.221-2.3376 2.893-4.5759 5.028-6.715 2.233-2.2383 5.028-4.0246 8.383-5.3478 3.455-1.4223 7.415-2.1391 11.882-2.1391 6.7 0 12.091 1.3232 16.151 3.9695 4.17 2.5471 7.206 6.0534 9.142 10.5411 1.937 4.4767 2.894 9.5157 2.894 15.1171zm-54.096 0h-16.459v-102.313h16.459z"/><path d="m495.555 103.846c-7.723 0-14.423-1.632-20.111-4.8849-5.688-3.363-10.056-7.9941-13.103-13.8932-3.048-6.0093-4.566-12.9338-4.566-20.7735s1.529-14.7091 4.566-20.6192c3.047-5.9101 7.415-10.486 13.103-13.7387 5.688-3.363 12.388-5.039 20.111-5.039s14.325 1.676 19.814 5.039c5.589 3.2527 9.858 7.8397 12.796 13.7387 3.047 5.9101 4.565 12.7795 4.565 20.6192s-1.529 14.7642-4.565 20.7735c-2.949 5.9101-7.218 10.5412-12.796 13.8932-5.489 3.2529-12.091 4.8849-19.814 4.8849zm0-14.6653c7.921 0 13.455-1.9847 16.613-5.9541 3.146-4.0687 4.72-10.3868 4.72-18.9322s-1.574-14.8083-4.72-18.7778c-3.147-3.9694-8.681-5.9542-16.613-5.9542s-13.609 1.9848-16.756 5.9542c-3.146 3.9695-4.719 10.2324-4.719 18.7778s1.573 14.8635 4.719 18.9322c3.147 3.9694 8.736 5.9541 16.756 5.9541z"/><path d="m561.489 102.313h-16.459v-76.357h15.084v21.2256l1.375.7608v54.3596zm0-49.4749h-3.807v-14.8083h3.202c1.529-3.5615 4.016-6.6158 7.47-9.1629 3.554-2.6463 8.13-3.9694 13.719-3.9694s9.649 1.1687 12.796 3.5173c3.256 2.3376 5.588 5.447 7.008 9.3173 1.419 3.8702 2.134 8.1925 2.134 12.9779v5.039h-16.459v-3.0543c0-5.0941-.869-8.6556-2.596-10.6844-1.727-2.0289-4.973-3.0543-9.748-3.0543-4.774 0-8.537 1.0695-10.66 3.2086-2.036 2.0399-3.048 5.6014-3.048 10.6845z"/><path clip-rule="evenodd" d="m15.6666 67.3817c-4.1477 0-8.13035-1.687-11.06784-4.6641-2.93749-2.9882-4.59876-7.0238-4.59876-11.2358v-35.5819c0-4.212 1.66127-8.25868 4.59876-11.23578s6.90914-4.66412 11.06784-4.66412h35.0518c4.1477 0 8.1303 1.68702 11.0678 4.66412s4.5878 7.02378 4.5988 11.23578v33.8948l-9.3516 5.4801h31.8063c3.2125 0 6.293 1.3011 8.5704 3.6056s3.5539 5.436 3.5539 8.6998v22.5818c0 3.2638-1.2875 6.3953-3.5539 8.6997-2.2774 2.3043-5.3579 3.6053-8.5704 3.6053h-22.2567c-3.2125 0-6.293-1.301-8.5704-3.6053-2.2774-2.3044-3.5536-5.4359-3.5536-8.6997v-17.2892l9.3846-5.5021h-48.177m38.7924-12.1069v-43.1569h-42.533v43.1679h42.533zm34.3807 12.1069h-22.4547v22.7913s.022.0992.066.1433c.033.0331.088.0552.132.0662h22.2567s.099-.0221.132-.0662c.033-.033.055-.0882.066-.1433v-22.5929s-.022-.0992-.066-.1323c-.033-.0441-.088-.0661-.132-.0661z" fill-rule="evenodd"/></g></svg>