<svg width="29" height="30" viewBox="0 0 29 30" fill="none" xmlns="http://www.w3.org/2000/svg">
<g id="solar:scale-outline">
<g id="Group">
<path id="Vector" d="M13.293 3.823C13.5333 3.82284 13.7638 3.7272 13.9336 3.55714C14.1034 3.38707 14.1988 3.1565 14.1986 2.91614C14.1985 2.67579 14.1028 2.44535 13.9328 2.27551C13.7627 2.10566 13.5321 2.01034 13.2918 2.0105C10.8558 2.01533 8.91518 2.04554 7.37334 2.29446C5.80251 2.54821 4.54826 3.04362 3.54655 4.04533C2.46509 5.12558 1.97572 6.50308 1.7413 8.25033C1.51172 9.95408 1.51172 12.1412 1.51172 14.93V15.069C1.51172 17.8578 1.51172 20.0437 1.7413 21.7498C1.97572 23.4959 2.4663 24.8734 3.54655 25.9548C4.62801 27.0351 6.00551 27.5257 7.75155 27.7601C9.45651 27.9897 11.6424 27.9897 14.4324 27.9897H14.5702C17.3602 27.9897 19.5461 27.9897 21.2523 27.7601C22.9971 27.5245 24.3746 27.0351 25.4561 25.9536C26.4566 24.9531 26.952 23.6977 27.2057 22.128C27.4558 20.585 27.4861 18.6444 27.4897 16.2096C27.4899 16.0906 27.4667 15.9727 27.4214 15.8627C27.3761 15.7526 27.3095 15.6526 27.2255 15.5683C27.0559 15.398 26.8256 15.302 26.5852 15.3016C26.3449 15.3011 26.1142 15.3961 25.9439 15.5657C25.7736 15.7353 25.6777 15.9656 25.6772 16.206C25.6736 18.671 25.6397 20.463 25.4162 21.838C25.1987 23.1865 24.812 24.0336 24.174 24.6728C23.4853 25.3615 22.5548 25.7555 21.0094 25.9633C19.4386 26.1747 17.3747 26.176 14.5013 26.176C11.6279 26.176 9.56405 26.1747 7.99322 25.9633C6.44776 25.7555 5.51614 25.3603 4.82739 24.6728C4.13984 23.984 3.74472 23.0536 3.53689 21.507C3.32664 19.9361 3.32422 17.8735 3.32422 14.9989C3.32422 12.1255 3.32664 10.0616 3.53689 8.49079C3.74472 6.94654 4.14105 6.01371 4.82859 5.32616C5.46659 4.68816 6.31484 4.30271 7.66214 4.084C9.03722 3.86167 10.828 3.82783 13.293 3.823Z" fill="black"/>
<path id="Vector_2" d="M19.2198 2.91675C19.2198 3.417 19.6258 3.823 20.126 3.823H24.395L15.4062 12.813V10.1667C15.4062 9.9264 15.3108 9.69589 15.1408 9.52593C14.9709 9.35598 14.7404 9.2605 14.5 9.2605C14.2596 9.2605 14.0291 9.35598 13.8592 9.52593C13.6892 9.69589 13.5938 9.9264 13.5938 10.1667V15.0001C13.5938 15.5003 13.9998 15.9063 14.5 15.9063H19.3333C19.5737 15.9063 19.8042 15.8109 19.9741 15.6409C20.1441 15.4709 20.2396 15.2404 20.2396 15.0001C20.2396 14.7597 20.1441 14.5292 19.9741 14.3593C19.8042 14.1893 19.5737 14.0938 19.3333 14.0938H16.6871L25.6771 5.10383V9.37408C25.6771 9.61443 25.7726 9.84494 25.9425 10.0149C26.1125 10.1849 26.343 10.2803 26.5833 10.2803C26.8237 10.2803 27.0542 10.1849 27.2241 10.0149C27.3941 9.84494 27.4896 9.61443 27.4896 9.37408V2.91675C27.4896 2.6764 27.3941 2.44589 27.2241 2.27593C27.0542 2.10598 26.8237 2.0105 26.5833 2.0105H20.126C19.8856 2.0105 19.6551 2.10598 19.4852 2.27593C19.3152 2.44589 19.2198 2.6764 19.2198 2.91675Z" fill="black"/>
</g>
</g>
</svg>
