<svg width="32" height="32" viewBox="0 0 32 32" fill="none" xmlns="http://www.w3.org/2000/svg">
<g id="la:tools">
<path id="Vector" d="M5.25 2.75L4.687 3.281L3.281 4.687L2.75 5.25L3.156 5.906L5.25 9.406L5.531 9.906H8.47L12.47 13.875C8.896 17.465 4.349 22.027 4.189 22.188C2.622 23.754 2.619 26.32 4.219 27.813C5.782 29.355 8.329 29.395 9.814 27.813L9.844 27.781L16 21.594L22.188 27.812L22.281 27.875C23.851 29.355 26.348 29.375 27.813 27.812V27.782H27.843C29.375 26.215 29.391 23.668 27.813 22.187L27.781 22.157L22.563 16.969C26.074 16.641 28.824 13.676 28.875 10.094H28.906C28.91 10.074 28.906 10.051 28.906 10.031V10C29.004 8.844 28.754 7.738 28.156 6.781L27.47 5.72L22.813 10.376L21.407 8.907L26.157 4.157L24.782 3.595C23.9049 3.20914 22.9582 3.00666 22 3C18.156 3 15 6.156 15 10C15 10.418 15.09 10.781 15.156 11.156C14.719 11.594 14.391 11.953 13.875 12.469L9.906 8.5V5.531L9.406 5.25L5.906 3.156L5.25 2.75ZM22 5C22.14 5 22.238 5.082 22.375 5.094L18.594 8.875L19.281 9.594L22.094 12.5L22.781 13.219L26.75 9.25C26.77 9.48 26.934 9.648 26.906 9.906V10C26.906 12.754 24.66 15 21.906 15C21.539 15 21.094 14.914 20.594 14.812L20.062 14.719L19.687 15.094L8.407 26.406H8.375V26.438C7.665 27.215 6.422 27.234 5.594 26.406V26.375H5.562C4.785 25.665 4.766 24.422 5.594 23.594C5.973 23.214 13.312 15.812 16.906 12.219L17.313 11.813L17.156 11.25C17.0611 10.8398 17.0088 10.4209 17 10C17 7.246 19.246 5 22 5ZM5.562 5.25L7.906 6.688V7.688L7.688 7.906H6.688L5.25 5.563L5.562 5.25ZM20.187 17.406L26.407 23.594V23.625H26.437C27.215 24.335 27.234 25.578 26.407 26.406H26.375V26.438C25.665 27.215 24.422 27.234 23.594 26.406L17.406 20.188L20.187 17.406Z" fill="black"/>
</g>
</svg>
